<mxfile host="app.diagrams.net" modified="2021-08-11T01:33:45.049Z" agent="5.0 (Macintosh; Intel Mac OS X 10_14_3) AppleWebKit/537.36 (KHTML, like Gecko) Chrome/92.0.4515.131 Safari/537.36" etag="kzdeakk_ADZnG4hPvo99" version="14.9.5" type="github">
  <diagram id="3228e29e-7158-1315-38df-8450db1d8a1d" name="Page-1">
    <mxGraphModel dx="2365" dy="805" grid="0" gridSize="10" guides="1" tooltips="1" connect="1" arrows="1" fold="1" page="1" pageScale="1" pageWidth="750" pageHeight="930" background="#EFF1F3" math="0" shadow="1">
      <root>
        <mxCell id="0" />
        <mxCell id="1" parent="0" />
        <mxCell id="_KJd5dzx4qh3lxpyMWcO-2" value="" style="fontColor=#0066CC;verticalAlign=top;verticalLabelPosition=bottom;labelPosition=center;align=center;html=1;outlineConnect=0;gradientColor=none;gradientDirection=north;strokeWidth=2;shape=mxgraph.networks.pc;fillColor=#67AB9F;fontSize=30;" parent="1" vertex="1">
          <mxGeometry x="149" y="92" width="74.65" height="54" as="geometry" />
        </mxCell>
        <mxCell id="T-5VQnCJckOgUX1Wp16H-28" value="客户端A" style="text;html=1;strokeColor=none;fillColor=none;align=center;verticalAlign=middle;whiteSpace=wrap;rounded=0;fontSize=22;" parent="1" vertex="1">
          <mxGeometry x="96.82" y="160" width="179" height="20" as="geometry" />
        </mxCell>
        <mxCell id="aH1-eks404bDhsACtXEq-4" value="&lt;font style=&quot;font-size: 30px&quot;&gt;TCP自连接&lt;/font&gt;" style="text;html=1;strokeColor=none;fillColor=none;align=center;verticalAlign=middle;whiteSpace=wrap;rounded=0;" parent="1" vertex="1">
          <mxGeometry x="163" y="30" width="395" height="28" as="geometry" />
        </mxCell>
        <mxCell id="aH1-eks404bDhsACtXEq-7" value="" style="endArrow=none;html=1;strokeWidth=5;" parent="1" edge="1">
          <mxGeometry width="50" height="50" relative="1" as="geometry">
            <mxPoint x="201" y="886" as="sourcePoint" />
            <mxPoint x="200.5" y="202" as="targetPoint" />
          </mxGeometry>
        </mxCell>
        <mxCell id="aH1-eks404bDhsACtXEq-10" value="" style="endArrow=classic;html=1;strokeWidth=5;fontSize=20;strokeColor=#4A919B;" parent="1" edge="1">
          <mxGeometry width="50" height="50" relative="1" as="geometry">
            <mxPoint x="221" y="244" as="sourcePoint" />
            <mxPoint x="524" y="300" as="targetPoint" />
          </mxGeometry>
        </mxCell>
        <mxCell id="aH1-eks404bDhsACtXEq-11" value="&lt;font style=&quot;font-size: 18px&quot;&gt;SYN&amp;nbsp; seq=x&lt;/font&gt;" style="text;html=1;strokeColor=none;fillColor=none;align=center;verticalAlign=middle;whiteSpace=wrap;rounded=0;fontSize=12;rotation=10;" parent="1" vertex="1">
          <mxGeometry x="297" y="236" width="141" height="21" as="geometry" />
        </mxCell>
        <mxCell id="aH1-eks404bDhsACtXEq-14" value="主动connect()" style="text;html=1;strokeColor=none;fillColor=none;align=center;verticalAlign=middle;whiteSpace=wrap;rounded=0;fontSize=20;" parent="1" vertex="1">
          <mxGeometry x="55" y="202" width="130.5" height="20" as="geometry" />
        </mxCell>
        <mxCell id="aH1-eks404bDhsACtXEq-16" value="SYN_SENT" style="rounded=1;whiteSpace=wrap;html=1;strokeColor=#000000;fillColor=none;dashed=1;strokeWidth=3;" parent="1" vertex="1">
          <mxGeometry x="97" y="234" width="88" height="66" as="geometry" />
        </mxCell>
        <mxCell id="aH1-eks404bDhsACtXEq-21" value="ESTABLISHED" style="rounded=1;whiteSpace=wrap;html=1;dashed=1;strokeWidth=3;fillColor=#535E80;strokeColor=none;fontColor=#FFFFFF;" parent="1" vertex="1">
          <mxGeometry x="96.82" y="410" width="88" height="213" as="geometry" />
        </mxCell>
        <mxCell id="YXoqQ_mGJv7HDvLP6CB5-1" value="" style="endArrow=none;html=1;strokeWidth=5;" parent="1" edge="1">
          <mxGeometry width="50" height="50" relative="1" as="geometry">
            <mxPoint x="552" y="888" as="sourcePoint" />
            <mxPoint x="552.0000000000001" y="198" as="targetPoint" />
          </mxGeometry>
        </mxCell>
        <mxCell id="05iy7tbYXC9IImr42Gc7-5" value="SYN_SENT" style="rounded=1;whiteSpace=wrap;html=1;strokeColor=#000000;fillColor=none;dashed=1;strokeWidth=3;" parent="1" vertex="1">
          <mxGeometry x="569.5" y="230" width="88" height="70" as="geometry" />
        </mxCell>
        <mxCell id="05iy7tbYXC9IImr42Gc7-6" value="主动connect()" style="text;html=1;strokeColor=none;fillColor=none;align=center;verticalAlign=middle;whiteSpace=wrap;rounded=0;fontSize=20;" parent="1" vertex="1">
          <mxGeometry x="562" y="198" width="130.5" height="20" as="geometry" />
        </mxCell>
        <mxCell id="05iy7tbYXC9IImr42Gc7-8" value="SYN_RCVD" style="rounded=1;whiteSpace=wrap;html=1;strokeColor=#000000;fillColor=none;dashed=1;strokeWidth=3;" parent="1" vertex="1">
          <mxGeometry x="97" y="310" width="88" height="88" as="geometry" />
        </mxCell>
        <mxCell id="05iy7tbYXC9IImr42Gc7-9" value="SYN_RCVD" style="rounded=1;whiteSpace=wrap;html=1;strokeColor=#000000;fillColor=none;dashed=1;strokeWidth=3;" parent="1" vertex="1">
          <mxGeometry x="569.5" y="310" width="88" height="89" as="geometry" />
        </mxCell>
        <mxCell id="05iy7tbYXC9IImr42Gc7-10" value="" style="endArrow=classic;html=1;strokeWidth=5;fontSize=20;fontColor=#4A919B;strokeColor=#4A919B;" parent="1" edge="1">
          <mxGeometry width="50" height="50" relative="1" as="geometry">
            <mxPoint x="222" y="410" as="sourcePoint" />
            <mxPoint x="533" y="459" as="targetPoint" />
          </mxGeometry>
        </mxCell>
        <mxCell id="05iy7tbYXC9IImr42Gc7-11" value="&lt;font style=&quot;font-size: 18px&quot;&gt;FIN + ACK&amp;nbsp;&lt;/font&gt;" style="text;html=1;strokeColor=none;fillColor=none;align=center;verticalAlign=middle;whiteSpace=wrap;rounded=0;fontSize=12;rotation=10;" parent="1" vertex="1">
          <mxGeometry x="307" y="630" width="141" height="21" as="geometry" />
        </mxCell>
        <mxCell id="05iy7tbYXC9IImr42Gc7-12" value="" style="endArrow=classic;html=1;strokeWidth=5;fontSize=20;strokeColor=#4A919B;" parent="1" edge="1">
          <mxGeometry width="50" height="50" relative="1" as="geometry">
            <mxPoint x="530" y="316" as="sourcePoint" />
            <mxPoint x="220" y="392" as="targetPoint" />
          </mxGeometry>
        </mxCell>
        <mxCell id="05iy7tbYXC9IImr42Gc7-13" value="&lt;font style=&quot;font-size: 18px&quot;&gt;SYN seq=x, ACK x+1&lt;/font&gt;" style="text;html=1;strokeColor=none;fillColor=none;align=center;verticalAlign=middle;whiteSpace=wrap;rounded=0;fontSize=12;rotation=-15;" parent="1" vertex="1">
          <mxGeometry x="283" y="316" width="195" height="32" as="geometry" />
        </mxCell>
        <mxCell id="05iy7tbYXC9IImr42Gc7-14" value="ESTABLISHED" style="rounded=1;whiteSpace=wrap;html=1;dashed=1;strokeWidth=3;fillColor=#535E80;strokeColor=none;fontColor=#FFFFFF;" parent="1" vertex="1">
          <mxGeometry x="569.5" y="410" width="88" height="217" as="geometry" />
        </mxCell>
        <mxCell id="kSryf4xxs6z4oqLGUq_P-1" value="" style="fontColor=#0066CC;verticalAlign=top;verticalLabelPosition=bottom;labelPosition=center;align=center;html=1;outlineConnect=0;gradientColor=none;gradientDirection=north;strokeWidth=2;shape=mxgraph.networks.pc;fillColor=#67AB9F;fontSize=30;" parent="1" vertex="1">
          <mxGeometry x="521.1800000000001" y="92" width="74.65" height="54" as="geometry" />
        </mxCell>
        <mxCell id="kSryf4xxs6z4oqLGUq_P-2" value="客户端A" style="text;html=1;strokeColor=none;fillColor=none;align=center;verticalAlign=middle;whiteSpace=wrap;rounded=0;fontSize=22;" parent="1" vertex="1">
          <mxGeometry x="469" y="160" width="179" height="20" as="geometry" />
        </mxCell>
        <mxCell id="vr_TXYu6NAvj7ptn52GS-1" value="close()" style="text;html=1;strokeColor=none;fillColor=none;align=center;verticalAlign=middle;whiteSpace=wrap;rounded=0;fontSize=20;fontColor=#FFFFFF;" vertex="1" parent="1">
          <mxGeometry x="102.75" y="595" width="76.5" height="20" as="geometry" />
        </mxCell>
        <mxCell id="vr_TXYu6NAvj7ptn52GS-8" value="" style="shape=flexArrow;endArrow=none;html=1;fontColor=#FFFFFF;gradientColor=none;endWidth=24.381720430107528;endSize=9.583333333333334;width=27.5;startArrow=block;endFill=0;strokeColor=none;fillColor=#535E80;" edge="1" parent="1">
          <mxGeometry width="50" height="50" relative="1" as="geometry">
            <mxPoint x="413" y="525" as="sourcePoint" />
            <mxPoint x="303" y="525" as="targetPoint" />
          </mxGeometry>
        </mxCell>
        <mxCell id="vr_TXYu6NAvj7ptn52GS-23" value="TIME_WAIT" style="rounded=1;whiteSpace=wrap;html=1;strokeColor=#000000;fillColor=none;dashed=1;strokeWidth=3;" vertex="1" parent="1">
          <mxGeometry x="96.82" y="762" width="88" height="63" as="geometry" />
        </mxCell>
        <mxCell id="vr_TXYu6NAvj7ptn52GS-24" value="&lt;font color=&quot;#ffffff&quot;&gt;CLOSED&lt;/font&gt;" style="rounded=1;whiteSpace=wrap;html=1;strokeWidth=3;strokeColor=#535E80;fillColor=#535E80;" vertex="1" parent="1">
          <mxGeometry x="96.82" y="842" width="88" height="47" as="geometry" />
        </mxCell>
        <mxCell id="vr_TXYu6NAvj7ptn52GS-26" value="" style="points=[[0.25,0.25,0],[0.5,0,0],[0.75,0.25,0],[1,0.5,0],[0.75,0.75,0],[0.5,1,0],[0.25,0.75,0],[0,0.5,0]];shape=mxgraph.bpmn.gateway2;html=1;verticalLabelPosition=bottom;labelBackgroundColor=#ffffff;verticalAlign=top;align=center;perimeter=rhombusPerimeter;outlineConnect=0;outline=standard;symbol=timer;fillColor=#535E80;strokeColor=#FFFFFF;" vertex="1" parent="1">
          <mxGeometry x="14" y="764" width="63" height="63" as="geometry" />
        </mxCell>
        <mxCell id="vr_TXYu6NAvj7ptn52GS-27" value="2MSL" style="text;html=1;strokeColor=none;fillColor=none;align=center;verticalAlign=middle;whiteSpace=wrap;rounded=0;" vertex="1" parent="1">
          <mxGeometry x="25.5" y="831" width="40" height="20" as="geometry" />
        </mxCell>
        <mxCell id="vr_TXYu6NAvj7ptn52GS-28" value="&lt;font style=&quot;font-size: 18px&quot;&gt;数据传输&lt;/font&gt;" style="text;html=1;strokeColor=none;fillColor=none;align=center;verticalAlign=middle;whiteSpace=wrap;rounded=0;rotation=0;fontColor=#FFFFFF;" vertex="1" parent="1">
          <mxGeometry x="316" y="514" width="79" height="20" as="geometry" />
        </mxCell>
        <mxCell id="vr_TXYu6NAvj7ptn52GS-29" value="FIN-WAIT-1" style="rounded=1;whiteSpace=wrap;html=1;strokeColor=#000000;fillColor=none;dashed=1;strokeWidth=3;" vertex="1" parent="1">
          <mxGeometry x="569.5" y="641" width="88" height="48" as="geometry" />
        </mxCell>
        <mxCell id="vr_TXYu6NAvj7ptn52GS-30" value="" style="endArrow=classic;html=1;strokeWidth=5;fontSize=20;fontColor=#FDD276;strokeColor=#FDD276;" edge="1" parent="1">
          <mxGeometry width="50" height="50" relative="1" as="geometry">
            <mxPoint x="223.65" y="633" as="sourcePoint" />
            <mxPoint x="535" y="693" as="targetPoint" />
          </mxGeometry>
        </mxCell>
        <mxCell id="vr_TXYu6NAvj7ptn52GS-31" value="close()" style="text;html=1;strokeColor=none;fillColor=none;align=center;verticalAlign=middle;whiteSpace=wrap;rounded=0;fontSize=20;fontColor=#FFFFFF;" vertex="1" parent="1">
          <mxGeometry x="575.25" y="597" width="76.5" height="20" as="geometry" />
        </mxCell>
        <mxCell id="vr_TXYu6NAvj7ptn52GS-32" value="FIN-WAIT-1" style="rounded=1;whiteSpace=wrap;html=1;strokeColor=#000000;fillColor=none;dashed=1;strokeWidth=3;" vertex="1" parent="1">
          <mxGeometry x="97.5" y="641" width="88" height="48" as="geometry" />
        </mxCell>
        <mxCell id="vr_TXYu6NAvj7ptn52GS-33" value="CLOSING" style="rounded=1;whiteSpace=wrap;html=1;strokeColor=#000000;fillColor=none;dashed=1;strokeWidth=3;" vertex="1" parent="1">
          <mxGeometry x="568" y="703" width="88" height="48" as="geometry" />
        </mxCell>
        <mxCell id="vr_TXYu6NAvj7ptn52GS-34" value="CLOSING" style="rounded=1;whiteSpace=wrap;html=1;strokeColor=#000000;fillColor=none;dashed=1;strokeWidth=3;" vertex="1" parent="1">
          <mxGeometry x="97" y="701" width="88" height="48" as="geometry" />
        </mxCell>
        <mxCell id="vr_TXYu6NAvj7ptn52GS-35" value="" style="endArrow=classic;html=1;strokeWidth=5;fontSize=20;strokeColor=#FDD276;" edge="1" parent="1">
          <mxGeometry width="50" height="50" relative="1" as="geometry">
            <mxPoint x="533" y="704" as="sourcePoint" />
            <mxPoint x="224" y="750" as="targetPoint" />
          </mxGeometry>
        </mxCell>
        <mxCell id="vr_TXYu6NAvj7ptn52GS-37" value="TIME_WAIT" style="rounded=1;whiteSpace=wrap;html=1;strokeColor=#000000;fillColor=none;dashed=1;strokeWidth=3;" vertex="1" parent="1">
          <mxGeometry x="568" y="762" width="88" height="63" as="geometry" />
        </mxCell>
        <mxCell id="vr_TXYu6NAvj7ptn52GS-38" value="&lt;font color=&quot;#ffffff&quot;&gt;CLOSED&lt;/font&gt;" style="rounded=1;whiteSpace=wrap;html=1;strokeWidth=3;strokeColor=#535E80;fillColor=#535E80;" vertex="1" parent="1">
          <mxGeometry x="568" y="842" width="88" height="47" as="geometry" />
        </mxCell>
        <mxCell id="vr_TXYu6NAvj7ptn52GS-39" value="" style="points=[[0.25,0.25,0],[0.5,0,0],[0.75,0.25,0],[1,0.5,0],[0.75,0.75,0],[0.5,1,0],[0.25,0.75,0],[0,0.5,0]];shape=mxgraph.bpmn.gateway2;html=1;verticalLabelPosition=bottom;labelBackgroundColor=#ffffff;verticalAlign=top;align=center;perimeter=rhombusPerimeter;outlineConnect=0;outline=standard;symbol=timer;fillColor=#535E80;strokeColor=#FFFFFF;" vertex="1" parent="1">
          <mxGeometry x="673" y="764" width="63" height="63" as="geometry" />
        </mxCell>
        <mxCell id="vr_TXYu6NAvj7ptn52GS-40" value="2MSL" style="text;html=1;strokeColor=none;fillColor=none;align=center;verticalAlign=middle;whiteSpace=wrap;rounded=0;" vertex="1" parent="1">
          <mxGeometry x="684.5" y="831" width="40" height="20" as="geometry" />
        </mxCell>
        <mxCell id="vr_TXYu6NAvj7ptn52GS-41" value="&lt;font style=&quot;font-size: 18px&quot;&gt;ACK&lt;/font&gt;" style="text;html=1;strokeColor=none;fillColor=none;align=center;verticalAlign=middle;whiteSpace=wrap;rounded=0;fontSize=12;rotation=-10;" vertex="1" parent="1">
          <mxGeometry x="287" y="703" width="141" height="21" as="geometry" />
        </mxCell>
      </root>
    </mxGraphModel>
  </diagram>
</mxfile>
